<?xml version="1.0" encoding="UTF-8" standalone="no"?>
<!DOCTYPE svg PUBLIC "-//W3C//DTD SVG 1.1//EN"
 "http://www.w3.org/Graphics/SVG/1.1/DTD/svg11.dtd">
<!-- Generated by graphviz version 2.43.0 (0)
 -->
<!-- Title: snakemake_dag Pages: 1 -->
<svg width="868pt" height="332pt"
 viewBox="0.00 0.00 867.50 332.00" xmlns="http://www.w3.org/2000/svg" xmlns:xlink="http://www.w3.org/1999/xlink">
<g id="graph0" class="graph" transform="scale(1 1) rotate(0) translate(4 328)">
<title>snakemake_dag</title>
<polygon fill="white" stroke="transparent" points="-4,4 -4,-328 863.5,-328 863.5,4 -4,4"/>
<!-- 0 -->
<g id="node1" class="node">
<title>0</title>
<path fill="none" stroke="#56d8c9" stroke-width="2" d="M507,-36C507,-36 463,-36 463,-36 457,-36 451,-30 451,-24 451,-24 451,-12 451,-12 451,-6 457,0 463,0 463,0 507,0 507,0 513,0 519,-6 519,-12 519,-12 519,-24 519,-24 519,-30 513,-36 507,-36"/>
<text text-anchor="middle" x="485" y="-15.5" font-family="sans" font-size="10.00">build_PSet</text>
</g>
<!-- 1 -->
<g id="node2" class="node">
<title>1</title>
<path fill="none" stroke="#d8a456" stroke-width="2" d="M286,-108C286,-108 154,-108 154,-108 148,-108 142,-102 142,-96 142,-96 142,-84 142,-84 142,-78 148,-72 154,-72 154,-72 286,-72 286,-72 292,-72 298,-78 298,-84 298,-84 298,-96 298,-96 298,-102 292,-108 286,-108"/>
<text text-anchor="middle" x="220" y="-87.5" font-family="sans" font-size="10.00">build_MultiAssayExperiment</text>
</g>
<!-- 1&#45;&gt;0 -->
<g id="edge1" class="edge">
<title>1&#45;&gt;0</title>
<path fill="none" stroke="grey" stroke-width="2" d="M284.49,-71.97C332.99,-59.15 398.19,-41.93 440.88,-30.65"/>
<polygon fill="grey" stroke="grey" stroke-width="2" points="441.92,-34 450.69,-28.06 440.13,-27.23 441.92,-34"/>
</g>
<!-- 2 -->
<g id="node3" class="node">
<title>2</title>
<path fill="none" stroke="#56a2d8" stroke-width="2" d="M257,-180C257,-180 177,-180 177,-180 171,-180 165,-174 165,-168 165,-168 165,-156 165,-156 165,-150 171,-144 177,-144 177,-144 257,-144 257,-144 263,-144 269,-150 269,-156 269,-156 269,-168 269,-168 269,-174 263,-180 257,-180"/>
<text text-anchor="middle" x="217" y="-159.5" font-family="sans" font-size="10.00">build_RNASEQ_SE</text>
</g>
<!-- 2&#45;&gt;1 -->
<g id="edge5" class="edge">
<title>2&#45;&gt;1</title>
<path fill="none" stroke="grey" stroke-width="2" d="M217.74,-143.7C218.07,-135.98 218.47,-126.71 218.84,-118.11"/>
<polygon fill="grey" stroke="grey" stroke-width="2" points="222.34,-118.25 219.27,-108.1 215.34,-117.95 222.34,-118.25"/>
</g>
<!-- 3 -->
<g id="node4" class="node">
<title>3</title>
<path fill="none" stroke="#56d8a2" stroke-width="2" d="M98,-252C98,-252 12,-252 12,-252 6,-252 0,-246 0,-240 0,-240 0,-228 0,-228 0,-222 6,-216 12,-216 12,-216 98,-216 98,-216 104,-216 110,-222 110,-228 110,-228 110,-240 110,-240 110,-246 104,-252 98,-252"/>
<text text-anchor="middle" x="55" y="-231.5" font-family="sans" font-size="10.00">download_RNASEQ</text>
</g>
<!-- 3&#45;&gt;2 -->
<g id="edge7" class="edge">
<title>3&#45;&gt;2</title>
<path fill="none" stroke="grey" stroke-width="2" d="M94.63,-215.88C116.78,-206.31 144.56,-194.3 168.06,-184.15"/>
<polygon fill="grey" stroke="grey" stroke-width="2" points="169.71,-187.25 177.5,-180.07 166.93,-180.82 169.71,-187.25"/>
</g>
<!-- 4 -->
<g id="node5" class="node">
<title>4</title>
<path fill="none" stroke="#56d87b" stroke-width="2" d="M460,-252C460,-252 326,-252 326,-252 320,-252 314,-246 314,-240 314,-240 314,-228 314,-228 314,-222 320,-216 326,-216 326,-216 460,-216 460,-216 466,-216 472,-222 472,-228 472,-228 472,-240 472,-240 472,-246 466,-252 460,-252"/>
<text text-anchor="middle" x="393" y="-231.5" font-family="sans" font-size="10.00">preprocess_sampleMetadata</text>
</g>
<!-- 4&#45;&gt;1 -->
<g id="edge6" class="edge">
<title>4&#45;&gt;1</title>
<path fill="none" stroke="grey" stroke-width="2" d="M372.13,-215.87C341.35,-190.6 283.66,-143.25 248.85,-114.68"/>
<polygon fill="grey" stroke="grey" stroke-width="2" points="250.89,-111.83 240.94,-108.19 246.45,-117.24 250.89,-111.83"/>
</g>
<!-- 4&#45;&gt;2 -->
<g id="edge8" class="edge">
<title>4&#45;&gt;2</title>
<path fill="none" stroke="grey" stroke-width="2" d="M349.95,-215.88C325.67,-206.22 295.16,-194.09 269.49,-183.88"/>
<polygon fill="grey" stroke="grey" stroke-width="2" points="270.5,-180.51 259.91,-180.07 267.91,-187.02 270.5,-180.51"/>
</g>
<!-- 8 -->
<g id="node9" class="node">
<title>8</title>
<path fill="none" stroke="#78d856" stroke-width="2" d="M668,-108C668,-108 494,-108 494,-108 488,-108 482,-102 482,-96 482,-96 482,-84 482,-84 482,-78 488,-72 494,-72 494,-72 668,-72 668,-72 674,-72 680,-78 680,-84 680,-84 680,-96 680,-96 680,-102 674,-108 668,-108"/>
<text text-anchor="middle" x="581" y="-87.5" font-family="sans" font-size="10.00">build_treatmentResponseExperiment</text>
</g>
<!-- 4&#45;&gt;8 -->
<g id="edge13" class="edge">
<title>4&#45;&gt;8</title>
<path fill="none" stroke="grey" stroke-width="2" d="M409.55,-215.74C428.12,-196.87 459.64,-166.37 490,-144 505.26,-132.76 523.08,-121.93 538.89,-113.03"/>
<polygon fill="grey" stroke="grey" stroke-width="2" points="540.88,-115.93 547.93,-108.02 537.48,-109.8 540.88,-115.93"/>
</g>
<!-- 13 -->
<g id="node14" class="node">
<title>13</title>
<path fill="none" stroke="#d85656" stroke-width="2" d="M452,-108C452,-108 328,-108 328,-108 322,-108 316,-102 316,-96 316,-96 316,-84 316,-84 316,-78 322,-72 328,-72 328,-72 452,-72 452,-72 458,-72 464,-78 464,-84 464,-84 464,-96 464,-96 464,-102 458,-108 452,-108"/>
<text text-anchor="middle" x="390" y="-87.5" font-family="sans" font-size="10.00">annotate_sampleMetadata</text>
</g>
<!-- 4&#45;&gt;13 -->
<g id="edge17" class="edge">
<title>4&#45;&gt;13</title>
<path fill="none" stroke="grey" stroke-width="2" d="M392.64,-215.87C392.13,-191.67 391.19,-147.21 390.58,-118.39"/>
<polygon fill="grey" stroke="grey" stroke-width="2" points="394.07,-118.11 390.36,-108.19 387.08,-118.26 394.07,-118.11"/>
</g>
<!-- 5 -->
<g id="node6" class="node">
<title>5</title>
<path fill="none" stroke="#59d856" stroke-width="2" d="M457,-324C457,-324 329,-324 329,-324 323,-324 317,-318 317,-312 317,-312 317,-300 317,-300 317,-294 323,-288 329,-288 329,-288 457,-288 457,-288 463,-288 469,-294 469,-300 469,-300 469,-312 469,-312 469,-318 463,-324 457,-324"/>
<text text-anchor="middle" x="393" y="-303.5" font-family="sans" font-size="10.00">download_sampleMetadata</text>
</g>
<!-- 5&#45;&gt;4 -->
<g id="edge10" class="edge">
<title>5&#45;&gt;4</title>
<path fill="none" stroke="grey" stroke-width="2" d="M393,-287.7C393,-279.98 393,-270.71 393,-262.11"/>
<polygon fill="grey" stroke="grey" stroke-width="2" points="396.5,-262.1 393,-252.1 389.5,-262.1 396.5,-262.1"/>
</g>
<!-- 6 -->
<g id="node7" class="node">
<title>6</title>
<path fill="none" stroke="#c6d856" stroke-width="2" d="M284,-252C284,-252 140,-252 140,-252 134,-252 128,-246 128,-240 128,-240 128,-228 128,-228 128,-222 134,-216 140,-216 140,-216 284,-216 284,-216 290,-216 296,-222 296,-228 296,-228 296,-240 296,-240 296,-246 290,-252 284,-252"/>
<text text-anchor="middle" x="212" y="-231.5" font-family="sans" font-size="10.00">preprocess_genomeAnnotation</text>
</g>
<!-- 6&#45;&gt;2 -->
<g id="edge9" class="edge">
<title>6&#45;&gt;2</title>
<path fill="none" stroke="grey" stroke-width="2" d="M213.24,-215.7C213.79,-207.98 214.45,-198.71 215.06,-190.11"/>
<polygon fill="grey" stroke="grey" stroke-width="2" points="218.56,-190.33 215.78,-180.1 211.57,-189.83 218.56,-190.33"/>
</g>
<!-- 7 -->
<g id="node8" class="node">
<title>7</title>
<path fill="none" stroke="#56c9d8" stroke-width="2" d="M281,-324C281,-324 143,-324 143,-324 137,-324 131,-318 131,-312 131,-312 131,-300 131,-300 131,-294 137,-288 143,-288 143,-288 281,-288 281,-288 287,-288 293,-294 293,-300 293,-300 293,-312 293,-312 293,-318 287,-324 281,-324"/>
<text text-anchor="middle" x="212" y="-303.5" font-family="sans" font-size="10.00">download_genomeAnnotation</text>
</g>
<!-- 7&#45;&gt;6 -->
<g id="edge11" class="edge">
<title>7&#45;&gt;6</title>
<path fill="none" stroke="grey" stroke-width="2" d="M212,-287.7C212,-279.98 212,-270.71 212,-262.11"/>
<polygon fill="grey" stroke="grey" stroke-width="2" points="215.5,-262.1 212,-252.1 208.5,-262.1 215.5,-262.1"/>
</g>
<!-- 8&#45;&gt;0 -->
<g id="edge2" class="edge">
<title>8&#45;&gt;0</title>
<path fill="none" stroke="grey" stroke-width="2" d="M557.27,-71.7C545.06,-62.8 530.01,-51.82 516.82,-42.2"/>
<polygon fill="grey" stroke="grey" stroke-width="2" points="518.6,-39.17 508.46,-36.1 514.48,-44.82 518.6,-39.17"/>
</g>
<!-- 9 -->
<g id="node10" class="node">
<title>9</title>
<path fill="none" stroke="#d87d56" stroke-width="2" d="M651.5,-180C651.5,-180 510.5,-180 510.5,-180 504.5,-180 498.5,-174 498.5,-168 498.5,-168 498.5,-156 498.5,-156 498.5,-150 504.5,-144 510.5,-144 510.5,-144 651.5,-144 651.5,-144 657.5,-144 663.5,-150 663.5,-156 663.5,-156 663.5,-168 663.5,-168 663.5,-174 657.5,-180 651.5,-180"/>
<text text-anchor="middle" x="581" y="-159.5" font-family="sans" font-size="10.00">download_treatmentResponse</text>
</g>
<!-- 9&#45;&gt;8 -->
<g id="edge12" class="edge">
<title>9&#45;&gt;8</title>
<path fill="none" stroke="grey" stroke-width="2" d="M581,-143.7C581,-135.98 581,-126.71 581,-118.11"/>
<polygon fill="grey" stroke="grey" stroke-width="2" points="584.5,-118.1 581,-108.1 577.5,-118.1 584.5,-118.1"/>
</g>
<!-- 10 -->
<g id="node11" class="node">
<title>10</title>
<path fill="none" stroke="#9fd856" stroke-width="2" d="M846,-180C846,-180 700,-180 700,-180 694,-180 688,-174 688,-168 688,-168 688,-156 688,-156 688,-150 694,-144 700,-144 700,-144 846,-144 846,-144 852,-144 858,-150 858,-156 858,-156 858,-168 858,-168 858,-174 852,-180 846,-180"/>
<text text-anchor="middle" x="773" y="-159.5" font-family="sans" font-size="10.00">preprocess_treatmentMetadata</text>
</g>
<!-- 10&#45;&gt;8 -->
<g id="edge14" class="edge">
<title>10&#45;&gt;8</title>
<path fill="none" stroke="grey" stroke-width="2" d="M726.03,-143.88C699.32,-134.14 665.68,-121.87 637.53,-111.61"/>
<polygon fill="grey" stroke="grey" stroke-width="2" points="638.41,-108.21 627.82,-108.07 636.01,-114.78 638.41,-108.21"/>
</g>
<!-- 12 -->
<g id="node13" class="node">
<title>12</title>
<path fill="none" stroke="#567bd8" stroke-width="2" d="M847.5,-108C847.5,-108 710.5,-108 710.5,-108 704.5,-108 698.5,-102 698.5,-96 698.5,-96 698.5,-84 698.5,-84 698.5,-78 704.5,-72 710.5,-72 710.5,-72 847.5,-72 847.5,-72 853.5,-72 859.5,-78 859.5,-84 859.5,-84 859.5,-96 859.5,-96 859.5,-102 853.5,-108 847.5,-108"/>
<text text-anchor="middle" x="779" y="-87.5" font-family="sans" font-size="10.00">annotate_treatmentMetadata</text>
</g>
<!-- 10&#45;&gt;12 -->
<g id="edge16" class="edge">
<title>10&#45;&gt;12</title>
<path fill="none" stroke="grey" stroke-width="2" d="M774.48,-143.7C775.14,-135.98 775.94,-126.71 776.68,-118.11"/>
<polygon fill="grey" stroke="grey" stroke-width="2" points="780.17,-118.37 777.53,-108.1 773.19,-117.77 780.17,-118.37"/>
</g>
<!-- 11 -->
<g id="node12" class="node">
<title>11</title>
<path fill="none" stroke="#d8c356" stroke-width="2" d="M843,-252C843,-252 703,-252 703,-252 697,-252 691,-246 691,-240 691,-240 691,-228 691,-228 691,-222 697,-216 703,-216 703,-216 843,-216 843,-216 849,-216 855,-222 855,-228 855,-228 855,-240 855,-240 855,-246 849,-252 843,-252"/>
<text text-anchor="middle" x="773" y="-231.5" font-family="sans" font-size="10.00">download_treatmentMetadata</text>
</g>
<!-- 11&#45;&gt;10 -->
<g id="edge15" class="edge">
<title>11&#45;&gt;10</title>
<path fill="none" stroke="grey" stroke-width="2" d="M773,-215.7C773,-207.98 773,-198.71 773,-190.11"/>
<polygon fill="grey" stroke="grey" stroke-width="2" points="776.5,-190.1 773,-180.1 769.5,-190.1 776.5,-190.1"/>
</g>
<!-- 12&#45;&gt;0 -->
<g id="edge3" class="edge">
<title>12&#45;&gt;0</title>
<path fill="none" stroke="grey" stroke-width="2" d="M707.46,-71.97C651.72,-58.69 576.12,-40.69 528.97,-29.47"/>
<polygon fill="grey" stroke="grey" stroke-width="2" points="529.61,-26.02 519.07,-27.11 527.98,-32.83 529.61,-26.02"/>
</g>
<!-- 13&#45;&gt;0 -->
<g id="edge4" class="edge">
<title>13&#45;&gt;0</title>
<path fill="none" stroke="grey" stroke-width="2" d="M413.48,-71.7C425.56,-62.8 440.45,-51.82 453.52,-42.2"/>
<polygon fill="grey" stroke="grey" stroke-width="2" points="455.81,-44.85 461.79,-36.1 451.66,-39.22 455.81,-44.85"/>
</g>
</g>
</svg>
