<?xml version="1.0" encoding="UTF-8" standalone="no"?>
<!DOCTYPE svg PUBLIC "-//W3C//DTD SVG 1.1//EN"
 "http://www.w3.org/Graphics/SVG/1.1/DTD/svg11.dtd">
<!-- Generated by graphviz version 2.43.0 (0)
 -->
<!-- Title: snakemake_dag Pages: 1 -->
<svg width="1865pt" height="826pt"
 viewBox="0.00 0.00 1865.00 826.00" xmlns="http://www.w3.org/2000/svg" xmlns:xlink="http://www.w3.org/1999/xlink">
<g id="graph0" class="graph" transform="scale(1 1) rotate(0) translate(4 822)">
<title>snakemake_dag</title>
<polygon fill="white" stroke="transparent" points="-4,4 -4,-822 1861,-822 1861,4 -4,4"/>
<!-- 0 -->
<g id="node1" class="node">
<title>0</title>
<text text-anchor="start" x="1080" y="-125.6" font-family="sans" font-weight="bold" font-size="18.00">build_PSet</text>
<text text-anchor="start" x="985.5" y="-101.8" font-family="sans" font-size="10.00"> </text>
<text text-anchor="start" x="989.5" y="-101.8" font-family="sans" font-weight="bold" font-size="14.00">↪ input</text>
<text text-anchor="start" x="1047.5" y="-101.8" font-family="sans" font-size="10.00"> </text>
<text text-anchor="start" x="985.5" y="-82" font-family="monospace" font-size="10.00">procdata/metadata/sampleMetadata_annotated.csv</text>
<text text-anchor="start" x="985.5" y="-64" font-family="monospace" font-size="10.00">procdata/metadata/treatmentMetadata_annotated.csv</text>
<text text-anchor="start" x="985.5" y="-46" font-family="monospace" font-size="10.00">procdata/multiAssayExperiment.RDS</text>
<text text-anchor="start" x="985.5" y="-28" font-family="monospace" font-size="10.00">procdata/treatmentResponseExperiment.RDS</text>
<text text-anchor="start" x="1273.5" y="-10" font-family="sans" font-size="10.00"> &#160;</text>
<polygon fill="#57d957" stroke="#57d957" points="979.5,-116 979.5,-116 1287.5,-116 1287.5,-116 979.5,-116"/>
<polygon fill="#57d957" stroke="#57d957" points="979.5,-22 979.5,-22 1287.5,-22 1287.5,-22 979.5,-22"/>
<polygon fill="none" stroke="#57d957" stroke-width="2" points="979,-1 979,-145 1286,-145 1286,-1 979,-1"/>
</g>
<!-- 1 -->
<g id="node2" class="node">
<title>1</title>
<text text-anchor="start" x="495.5" y="-302.6" font-family="sans" font-weight="bold" font-size="18.00">build_MultiAssayExperiment</text>
<text text-anchor="start" x="495.5" y="-278.8" font-family="sans" font-size="10.00"> </text>
<text text-anchor="start" x="499.5" y="-278.8" font-family="sans" font-weight="bold" font-size="14.00">↪ input</text>
<text text-anchor="start" x="557.5" y="-278.8" font-family="sans" font-size="10.00"> </text>
<text text-anchor="start" x="495.5" y="-259" font-family="monospace" font-size="10.00">procdata/metadata/sampleMetadata.csv</text>
<text text-anchor="start" x="495.5" y="-241" font-family="monospace" font-size="10.00">procdata/rnaseq/RNASEQ_SE.RDS</text>
<text text-anchor="start" x="701.5" y="-220.8" font-family="sans" font-size="10.00"> </text>
<text text-anchor="start" x="705.5" y="-220.8" font-family="sans" font-weight="bold" font-size="14.00">output →</text>
<text text-anchor="start" x="775.5" y="-220.8" font-family="sans" font-size="10.00"> </text>
<text text-anchor="start" x="495.5" y="-201" font-family="monospace" font-size="10.00">procdata/multiAssayExperiment.RDS</text>
<polygon fill="#57d9c6" stroke="#57d9c6" points="489.5,-293 489.5,-293 786.5,-293 786.5,-293 489.5,-293"/>
<polygon fill="#57d9c6" stroke="#57d9c6" points="489.5,-235 489.5,-235 786.5,-235 786.5,-235 489.5,-235"/>
<polygon fill="none" stroke="#57d9c6" stroke-width="2" points="489.5,-192 489.5,-322 785.5,-322 785.5,-192 489.5,-192"/>
</g>
<!-- 1&#45;&gt;0 -->
<g id="edge2" class="edge">
<title>1&#45;&gt;0</title>
<path fill="none" stroke="grey" stroke-width="2" d="M773.62,-190.92C780.99,-187.82 788.31,-184.82 795.5,-182 851.05,-160.19 912.96,-139.39 968.41,-121.96"/>
<polygon fill="grey" stroke="grey" stroke-width="2" points="969.46,-125.3 977.96,-118.97 967.37,-118.62 969.46,-125.3"/>
</g>
<!-- 2 -->
<g id="node3" class="node">
<title>2</title>
<text text-anchor="start" x="545" y="-497.6" font-family="sans" font-weight="bold" font-size="18.00">build_RNASEQ_SE</text>
<text text-anchor="start" x="461.5" y="-473.8" font-family="sans" font-size="10.00"> </text>
<text text-anchor="start" x="465.5" y="-473.8" font-family="sans" font-weight="bold" font-size="14.00">↪ input</text>
<text text-anchor="start" x="523.5" y="-473.8" font-family="sans" font-size="10.00"> </text>
<text text-anchor="start" x="461.5" y="-454" font-family="monospace" font-size="10.00">procdata/metadata/genomeAnnotation.RDS</text>
<text text-anchor="start" x="461.5" y="-436" font-family="monospace" font-size="10.00">procdata/metadata/sampleMetadata.csv</text>
<text text-anchor="start" x="461.5" y="-418" font-family="monospace" font-size="10.00">rawdata/rnaseq/CCLE_RNAseq_rsem_genes_tpm_20180929.txt.gz</text>
<text text-anchor="start" x="726.5" y="-397.8" font-family="sans" font-size="10.00"> </text>
<text text-anchor="start" x="730.5" y="-397.8" font-family="sans" font-weight="bold" font-size="14.00">output →</text>
<text text-anchor="start" x="800.5" y="-397.8" font-family="sans" font-size="10.00"> </text>
<text text-anchor="start" x="461.5" y="-378" font-family="monospace" font-size="10.00">procdata/rnaseq/RNASEQ_SE.RDS</text>
<polygon fill="#a1d957" stroke="#a1d957" points="455.5,-488 455.5,-488 811.5,-488 811.5,-488 455.5,-488"/>
<polygon fill="#a1d957" stroke="#a1d957" points="455.5,-412 455.5,-412 811.5,-412 811.5,-412 455.5,-412"/>
<polygon fill="none" stroke="#a1d957" stroke-width="2" points="455,-369 455,-517 810,-517 810,-369 455,-369"/>
</g>
<!-- 2&#45;&gt;1 -->
<g id="edge5" class="edge">
<title>2&#45;&gt;1</title>
<path fill="none" stroke="grey" stroke-width="2" d="M634.51,-367.96C634.82,-356.45 635.15,-344.55 635.46,-333.02"/>
<polygon fill="grey" stroke="grey" stroke-width="2" points="638.96,-333.09 635.73,-323 631.96,-332.9 638.96,-333.09"/>
</g>
<!-- 3 -->
<g id="node4" class="node">
<title>3</title>
<text text-anchor="start" x="126.5" y="-647.6" font-family="sans" font-weight="bold" font-size="18.00">download_RNASEQ</text>
<text text-anchor="start" x="7.5" y="-623.8" font-family="sans" font-size="10.00"> </text>
<text text-anchor="start" x="11.5" y="-623.8" font-family="sans" font-weight="bold" font-size="14.00">↪ input</text>
<text text-anchor="start" x="69.5" y="-623.8" font-family="sans" font-size="10.00"> </text>
<text text-anchor="start" x="7.5" y="-604" font-family="monospace" font-size="10.00">data.broadinstitute.org/ccle/CCLE_RNAseq_rsem_genes_tpm_20180929.txt.gz</text>
<text text-anchor="start" x="356.5" y="-583.8" font-family="sans" font-size="10.00"> </text>
<text text-anchor="start" x="360.5" y="-583.8" font-family="sans" font-weight="bold" font-size="14.00">output →</text>
<text text-anchor="start" x="430.5" y="-583.8" font-family="sans" font-size="10.00"> </text>
<text text-anchor="start" x="7.5" y="-564" font-family="monospace" font-size="10.00">rawdata/rnaseq/CCLE_RNAseq_rsem_genes_tpm_20180929.txt.gz</text>
<polygon fill="#d95757" stroke="#d95757" points="1.5,-638 1.5,-638 441.5,-638 441.5,-638 1.5,-638"/>
<polygon fill="#d95757" stroke="#d95757" points="1.5,-598 1.5,-598 441.5,-598 441.5,-598 1.5,-598"/>
<polygon fill="none" stroke="#d95757" stroke-width="2" points="1,-555 1,-667 440,-667 440,-555 1,-555"/>
</g>
<!-- 3&#45;&gt;2 -->
<g id="edge7" class="edge">
<title>3&#45;&gt;2</title>
<path fill="none" stroke="grey" stroke-width="2" d="M359.7,-553.92C386.87,-542.97 415.78,-531.32 444.23,-519.86"/>
<polygon fill="grey" stroke="grey" stroke-width="2" points="445.89,-522.96 453.86,-515.98 443.28,-516.47 445.89,-522.96"/>
</g>
<!-- 4 -->
<g id="node5" class="node">
<title>4</title>
<text text-anchor="start" x="810.5" y="-647.6" font-family="sans" font-weight="bold" font-size="18.00">preprocess_sampleMetadata</text>
<text text-anchor="start" x="810.5" y="-623.8" font-family="sans" font-size="10.00"> </text>
<text text-anchor="start" x="814.5" y="-623.8" font-family="sans" font-weight="bold" font-size="14.00">↪ input</text>
<text text-anchor="start" x="872.5" y="-623.8" font-family="sans" font-size="10.00"> </text>
<text text-anchor="start" x="810.5" y="-604" font-family="monospace" font-size="10.00">rawdata/metadata/sampleMetadata.csv</text>
<text text-anchor="start" x="1020.5" y="-583.8" font-family="sans" font-size="10.00"> </text>
<text text-anchor="start" x="1024.5" y="-583.8" font-family="sans" font-weight="bold" font-size="14.00">output →</text>
<text text-anchor="start" x="1094.5" y="-583.8" font-family="sans" font-size="10.00"> </text>
<text text-anchor="start" x="810.5" y="-564" font-family="monospace" font-size="10.00">procdata/metadata/sampleMetadata.csv</text>
<polygon fill="#57a1d9" stroke="#57a1d9" points="804.5,-638 804.5,-638 1105.5,-638 1105.5,-638 804.5,-638"/>
<polygon fill="#57a1d9" stroke="#57a1d9" points="804.5,-598 804.5,-598 1105.5,-598 1105.5,-598 804.5,-598"/>
<polygon fill="none" stroke="#57a1d9" stroke-width="2" points="804.5,-555 804.5,-667 1104.5,-667 1104.5,-555 804.5,-555"/>
</g>
<!-- 4&#45;&gt;1 -->
<g id="edge6" class="edge">
<title>4&#45;&gt;1</title>
<path fill="none" stroke="grey" stroke-width="2" d="M933.37,-553.76C911.4,-500.98 872.86,-422.25 820.5,-368 806.91,-353.92 791.14,-340.96 774.67,-329.28"/>
<polygon fill="grey" stroke="grey" stroke-width="2" points="776.22,-326.09 766,-323.28 772.23,-331.85 776.22,-326.09"/>
</g>
<!-- 4&#45;&gt;2 -->
<g id="edge8" class="edge">
<title>4&#45;&gt;2</title>
<path fill="none" stroke="grey" stroke-width="2" d="M845.49,-553.8C826.1,-543.8 805.58,-533.23 785.24,-522.74"/>
<polygon fill="grey" stroke="grey" stroke-width="2" points="786.72,-519.57 776.22,-518.09 783.51,-525.79 786.72,-519.57"/>
</g>
<!-- 8 -->
<g id="node9" class="node">
<title>8</title>
<text text-anchor="start" x="1130" y="-311.6" font-family="sans" font-weight="bold" font-size="18.00">build_treatmentResponseExperiment</text>
<text text-anchor="start" x="1120.5" y="-287.8" font-family="sans" font-size="10.00"> </text>
<text text-anchor="start" x="1124.5" y="-287.8" font-family="sans" font-weight="bold" font-size="14.00">↪ input</text>
<text text-anchor="start" x="1182.5" y="-287.8" font-family="sans" font-size="10.00"> </text>
<text text-anchor="start" x="1120.5" y="-268" font-family="monospace" font-size="10.00">procdata/metadata/sampleMetadata.csv</text>
<text text-anchor="start" x="1120.5" y="-250" font-family="monospace" font-size="10.00">procdata/metadata/treatmentMetadata.csv</text>
<text text-anchor="start" x="1120.5" y="-232" font-family="monospace" font-size="10.00">rawdata/treatmentResponse/Repurposing_Public_23Q2_LMFI_matrix.csv</text>
<text text-anchor="start" x="1433.5" y="-211.8" font-family="sans" font-size="10.00"> </text>
<text text-anchor="start" x="1437.5" y="-211.8" font-family="sans" font-weight="bold" font-size="14.00">output →</text>
<text text-anchor="start" x="1507.5" y="-211.8" font-family="sans" font-size="10.00"> </text>
<text text-anchor="start" x="1120.5" y="-192" font-family="monospace" font-size="10.00">procdata/treatmentResponseExperiment.RDS</text>
<polygon fill="#57d9a1" stroke="#57d9a1" points="1114.5,-302 1114.5,-302 1518.5,-302 1518.5,-302 1114.5,-302"/>
<polygon fill="#57d9a1" stroke="#57d9a1" points="1114.5,-226 1114.5,-226 1518.5,-226 1518.5,-226 1114.5,-226"/>
<polygon fill="none" stroke="#57d9a1" stroke-width="2" points="1114,-183 1114,-331 1517,-331 1517,-183 1114,-183"/>
</g>
<!-- 4&#45;&gt;8 -->
<g id="edge14" class="edge">
<title>4&#45;&gt;8</title>
<path fill="none" stroke="grey" stroke-width="2" d="M975.77,-553.84C998.37,-500.38 1038.6,-420.5 1094.5,-368 1106.14,-357.07 1119.08,-346.98 1132.68,-337.74"/>
<polygon fill="grey" stroke="grey" stroke-width="2" points="1134.82,-340.52 1141.24,-332.09 1130.96,-334.68 1134.82,-340.52"/>
</g>
<!-- 13 -->
<g id="node14" class="node">
<title>13</title>
<text text-anchor="start" x="816.5" y="-293.6" font-family="sans" font-weight="bold" font-size="18.00">annotate_sampleMetadata</text>
<text text-anchor="start" x="811.5" y="-269.8" font-family="sans" font-size="10.00"> </text>
<text text-anchor="start" x="815.5" y="-269.8" font-family="sans" font-weight="bold" font-size="14.00">↪ input</text>
<text text-anchor="start" x="873.5" y="-269.8" font-family="sans" font-size="10.00"> </text>
<text text-anchor="start" x="811.5" y="-250" font-family="monospace" font-size="10.00">procdata/metadata/sampleMetadata.csv</text>
<text text-anchor="start" x="1010.5" y="-229.8" font-family="sans" font-size="10.00"> </text>
<text text-anchor="start" x="1014.5" y="-229.8" font-family="sans" font-weight="bold" font-size="14.00">output →</text>
<text text-anchor="start" x="1084.5" y="-229.8" font-family="sans" font-size="10.00"> </text>
<text text-anchor="start" x="811.5" y="-210" font-family="monospace" font-size="10.00">procdata/metadata/sampleMetadata_annotated.csv</text>
<polygon fill="#57c6d9" stroke="#57c6d9" points="805.5,-284 805.5,-284 1095.5,-284 1095.5,-284 805.5,-284"/>
<polygon fill="#57c6d9" stroke="#57c6d9" points="805.5,-244 805.5,-244 1095.5,-244 1095.5,-244 805.5,-244"/>
<polygon fill="none" stroke="#57c6d9" stroke-width="2" points="805,-201 805,-313 1094,-313 1094,-201 805,-201"/>
</g>
<!-- 4&#45;&gt;13 -->
<g id="edge17" class="edge">
<title>4&#45;&gt;13</title>
<path fill="none" stroke="grey" stroke-width="2" d="M953.7,-553.84C952.82,-491.47 951.39,-390.87 950.45,-324.59"/>
<polygon fill="grey" stroke="grey" stroke-width="2" points="953.94,-324.2 950.3,-314.26 946.94,-324.3 953.94,-324.2"/>
</g>
<!-- 5 -->
<g id="node6" class="node">
<title>5</title>
<text text-anchor="start" x="848.5" y="-786.6" font-family="sans" font-weight="bold" font-size="18.00">download_sampleMetadata</text>
<text text-anchor="start" x="848.5" y="-765" font-family="sans" font-size="10.00"> &#160;</text>
<text text-anchor="start" x="1044.5" y="-744.8" font-family="sans" font-size="10.00"> </text>
<text text-anchor="start" x="1048.5" y="-744.8" font-family="sans" font-weight="bold" font-size="14.00">output →</text>
<text text-anchor="start" x="1118.5" y="-744.8" font-family="sans" font-size="10.00"> </text>
<text text-anchor="start" x="848.5" y="-725" font-family="monospace" font-size="10.00">rawdata/metadata/sampleMetadata.csv</text>
<polygon fill="#d9a157" stroke="#d9a157" points="842.5,-777 842.5,-777 1129.5,-777 1129.5,-777 842.5,-777"/>
<polygon fill="#d9a157" stroke="#d9a157" points="842.5,-759 842.5,-759 1129.5,-759 1129.5,-759 842.5,-759"/>
<polygon fill="none" stroke="#d9a157" stroke-width="2" points="842.5,-716 842.5,-806 1128.5,-806 1128.5,-716 842.5,-716"/>
</g>
<!-- 5&#45;&gt;4 -->
<g id="edge10" class="edge">
<title>5&#45;&gt;4</title>
<path fill="none" stroke="grey" stroke-width="2" d="M976.03,-714.79C973.6,-703.19 970.93,-690.46 968.33,-678.04"/>
<polygon fill="grey" stroke="grey" stroke-width="2" points="971.74,-677.24 966.27,-668.17 964.89,-678.68 971.74,-677.24"/>
</g>
<!-- 6 -->
<g id="node7" class="node">
<title>6</title>
<text text-anchor="start" x="466.5" y="-647.6" font-family="sans" font-weight="bold" font-size="18.00">preprocess_genomeAnnotation</text>
<text text-anchor="start" x="466.5" y="-623.8" font-family="sans" font-size="10.00"> </text>
<text text-anchor="start" x="470.5" y="-623.8" font-family="sans" font-weight="bold" font-size="14.00">↪ input</text>
<text text-anchor="start" x="528.5" y="-623.8" font-family="sans" font-size="10.00"> </text>
<text text-anchor="start" x="466.5" y="-604" font-family="monospace" font-size="10.00">rawdata/metadata/genomeAnnotation.gtf</text>
<text text-anchor="start" x="700.5" y="-583.8" font-family="sans" font-size="10.00"> </text>
<text text-anchor="start" x="704.5" y="-583.8" font-family="sans" font-weight="bold" font-size="14.00">output →</text>
<text text-anchor="start" x="774.5" y="-583.8" font-family="sans" font-size="10.00"> </text>
<text text-anchor="start" x="466.5" y="-564" font-family="monospace" font-size="10.00">procdata/metadata/genomeAnnotation.RDS</text>
<polygon fill="#577cd9" stroke="#577cd9" points="460.5,-638 460.5,-638 785.5,-638 785.5,-638 460.5,-638"/>
<polygon fill="#577cd9" stroke="#577cd9" points="460.5,-598 460.5,-598 785.5,-598 785.5,-598 460.5,-598"/>
<polygon fill="none" stroke="#577cd9" stroke-width="2" points="460.5,-555 460.5,-667 784.5,-667 784.5,-555 460.5,-555"/>
</g>
<!-- 6&#45;&gt;2 -->
<g id="edge9" class="edge">
<title>6&#45;&gt;2</title>
<path fill="none" stroke="grey" stroke-width="2" d="M625.89,-553.8C626.38,-545.55 626.9,-536.91 627.42,-528.25"/>
<polygon fill="grey" stroke="grey" stroke-width="2" points="630.93,-528.29 628.04,-518.09 623.94,-527.87 630.93,-528.29"/>
</g>
<!-- 7 -->
<g id="node8" class="node">
<title>7</title>
<text text-anchor="start" x="442" y="-797.6" font-family="sans" font-weight="bold" font-size="18.00">download_genomeAnnotation</text>
<text text-anchor="start" x="365.5" y="-773.8" font-family="sans" font-size="10.00"> </text>
<text text-anchor="start" x="369.5" y="-773.8" font-family="sans" font-weight="bold" font-size="14.00">↪ input</text>
<text text-anchor="start" x="427.5" y="-773.8" font-family="sans" font-size="10.00"> </text>
<text text-anchor="start" x="365.5" y="-754" font-family="monospace" font-size="10.00">ccleparams/references_gtex_gencode.v29.GRCh38.ERCC.genes.collapsed_only.gtf</text>
<text text-anchor="start" x="738.5" y="-733.8" font-family="sans" font-size="10.00"> </text>
<text text-anchor="start" x="742.5" y="-733.8" font-family="sans" font-weight="bold" font-size="14.00">output →</text>
<text text-anchor="start" x="812.5" y="-733.8" font-family="sans" font-size="10.00"> </text>
<text text-anchor="start" x="365.5" y="-714" font-family="monospace" font-size="10.00">rawdata/metadata/genomeAnnotation.gtf</text>
<polygon fill="#57d97c" stroke="#57d97c" points="359.5,-788 359.5,-788 823.5,-788 823.5,-788 359.5,-788"/>
<polygon fill="#57d97c" stroke="#57d97c" points="359.5,-748 359.5,-748 823.5,-748 823.5,-748 359.5,-748"/>
<polygon fill="none" stroke="#57d97c" stroke-width="2" points="359,-705 359,-817 822,-817 822,-705 359,-705"/>
</g>
<!-- 7&#45;&gt;6 -->
<g id="edge11" class="edge">
<title>7&#45;&gt;6</title>
<path fill="none" stroke="grey" stroke-width="2" d="M602.69,-703.63C604.49,-695.29 606.36,-686.63 608.2,-678.12"/>
<polygon fill="grey" stroke="grey" stroke-width="2" points="611.65,-678.73 610.34,-668.22 604.81,-677.25 611.65,-678.73"/>
</g>
<!-- 8&#45;&gt;0 -->
<g id="edge4" class="edge">
<title>8&#45;&gt;0</title>
<path fill="none" stroke="grey" stroke-width="2" d="M1241.07,-181.97C1231.6,-172.56 1221.89,-162.9 1212.35,-153.41"/>
<polygon fill="grey" stroke="grey" stroke-width="2" points="1214.65,-150.76 1205.09,-146.19 1209.71,-155.73 1214.65,-150.76"/>
</g>
<!-- 9 -->
<g id="node10" class="node">
<title>9</title>
<text text-anchor="start" x="1154" y="-468.6" font-family="sans" font-weight="bold" font-size="18.00">download_treatmentResponse</text>
<text text-anchor="start" x="1110.5" y="-447" font-family="sans" font-size="10.00"> &#160;</text>
<text text-anchor="start" x="1423.5" y="-426.8" font-family="sans" font-size="10.00"> </text>
<text text-anchor="start" x="1427.5" y="-426.8" font-family="sans" font-weight="bold" font-size="14.00">output →</text>
<text text-anchor="start" x="1497.5" y="-426.8" font-family="sans" font-size="10.00"> </text>
<text text-anchor="start" x="1110.5" y="-407" font-family="monospace" font-size="10.00">rawdata/treatmentResponse/Repurposing_Public_23Q2_LMFI_matrix.csv</text>
<polygon fill="#d97c57" stroke="#d97c57" points="1104.5,-459 1104.5,-459 1508.5,-459 1508.5,-459 1104.5,-459"/>
<polygon fill="#d97c57" stroke="#d97c57" points="1104.5,-441 1104.5,-441 1508.5,-441 1508.5,-441 1104.5,-441"/>
<polygon fill="none" stroke="#d97c57" stroke-width="2" points="1104,-398 1104,-488 1507,-488 1507,-398 1104,-398"/>
</g>
<!-- 9&#45;&gt;8 -->
<g id="edge13" class="edge">
<title>9&#45;&gt;8</title>
<path fill="none" stroke="grey" stroke-width="2" d="M1307.95,-396.99C1308.84,-380.48 1309.89,-361.22 1310.91,-342.39"/>
<polygon fill="grey" stroke="grey" stroke-width="2" points="1314.41,-342.47 1311.46,-332.3 1307.42,-342.09 1314.41,-342.47"/>
</g>
<!-- 10 -->
<g id="node11" class="node">
<title>10</title>
<text text-anchor="start" x="1533.5" y="-479.6" font-family="sans" font-weight="bold" font-size="18.00">preprocess_treatmentMetadata</text>
<text text-anchor="start" x="1533.5" y="-455.8" font-family="sans" font-size="10.00"> </text>
<text text-anchor="start" x="1537.5" y="-455.8" font-family="sans" font-weight="bold" font-size="14.00">↪ input</text>
<text text-anchor="start" x="1595.5" y="-455.8" font-family="sans" font-size="10.00"> </text>
<text text-anchor="start" x="1533.5" y="-436" font-family="monospace" font-size="10.00">rawdata/metadata/treatmentMetadata.csv</text>
<text text-anchor="start" x="1772.5" y="-415.8" font-family="sans" font-size="10.00"> </text>
<text text-anchor="start" x="1776.5" y="-415.8" font-family="sans" font-weight="bold" font-size="14.00">output →</text>
<text text-anchor="start" x="1846.5" y="-415.8" font-family="sans" font-size="10.00"> </text>
<text text-anchor="start" x="1533.5" y="-396" font-family="monospace" font-size="10.00">procdata/metadata/treatmentMetadata.csv</text>
<polygon fill="#7cd957" stroke="#7cd957" points="1527.5,-470 1527.5,-470 1857.5,-470 1857.5,-470 1527.5,-470"/>
<polygon fill="#7cd957" stroke="#7cd957" points="1527.5,-430 1527.5,-430 1857.5,-430 1857.5,-430 1527.5,-430"/>
<polygon fill="none" stroke="#7cd957" stroke-width="2" points="1527,-387 1527,-499 1856,-499 1856,-387 1527,-387"/>
</g>
<!-- 10&#45;&gt;8 -->
<g id="edge12" class="edge">
<title>10&#45;&gt;8</title>
<path fill="none" stroke="grey" stroke-width="2" d="M1576.9,-385.92C1545.07,-370.34 1509.92,-353.14 1475.99,-336.54"/>
<polygon fill="grey" stroke="grey" stroke-width="2" points="1477.44,-333.35 1466.92,-332.1 1474.37,-339.64 1477.44,-333.35"/>
</g>
<!-- 12 -->
<g id="node13" class="node">
<title>12</title>
<text text-anchor="start" x="1543.5" y="-293.6" font-family="sans" font-weight="bold" font-size="18.00">annotate_treatmentMetadata</text>
<text text-anchor="start" x="1543.5" y="-269.8" font-family="sans" font-size="10.00"> </text>
<text text-anchor="start" x="1547.5" y="-269.8" font-family="sans" font-weight="bold" font-size="14.00">↪ input</text>
<text text-anchor="start" x="1605.5" y="-269.8" font-family="sans" font-size="10.00"> </text>
<text text-anchor="start" x="1543.5" y="-250" font-family="monospace" font-size="10.00">procdata/metadata/treatmentMetadata.csv</text>
<text text-anchor="start" x="1761.5" y="-229.8" font-family="sans" font-size="10.00"> </text>
<text text-anchor="start" x="1765.5" y="-229.8" font-family="sans" font-weight="bold" font-size="14.00">output →</text>
<text text-anchor="start" x="1835.5" y="-229.8" font-family="sans" font-size="10.00"> </text>
<text text-anchor="start" x="1543.5" y="-210" font-family="monospace" font-size="10.00">procdata/metadata/treatmentMetadata_annotated.csv</text>
<polygon fill="#c6d957" stroke="#c6d957" points="1537.5,-284 1537.5,-284 1846.5,-284 1846.5,-284 1537.5,-284"/>
<polygon fill="#c6d957" stroke="#c6d957" points="1537.5,-244 1537.5,-244 1846.5,-244 1846.5,-244 1537.5,-244"/>
<polygon fill="none" stroke="#c6d957" stroke-width="2" points="1537.5,-201 1537.5,-313 1845.5,-313 1845.5,-201 1537.5,-201"/>
</g>
<!-- 10&#45;&gt;12 -->
<g id="edge16" class="edge">
<title>10&#45;&gt;12</title>
<path fill="none" stroke="grey" stroke-width="2" d="M1691.5,-385.79C1691.5,-366.36 1691.5,-344.39 1691.5,-324.23"/>
<polygon fill="grey" stroke="grey" stroke-width="2" points="1695,-324.18 1691.5,-314.18 1688,-324.18 1695,-324.18"/>
</g>
<!-- 11 -->
<g id="node12" class="node">
<title>11</title>
<text text-anchor="start" x="1540.5" y="-636.6" font-family="sans" font-weight="bold" font-size="18.00">download_treatmentMetadata</text>
<text text-anchor="start" x="1540.5" y="-615" font-family="sans" font-size="10.00"> &#160;</text>
<text text-anchor="start" x="1765.5" y="-594.8" font-family="sans" font-size="10.00"> </text>
<text text-anchor="start" x="1769.5" y="-594.8" font-family="sans" font-weight="bold" font-size="14.00">output →</text>
<text text-anchor="start" x="1839.5" y="-594.8" font-family="sans" font-size="10.00"> </text>
<text text-anchor="start" x="1540.5" y="-575" font-family="monospace" font-size="10.00">rawdata/metadata/treatmentMetadata.csv</text>
<polygon fill="#d9c657" stroke="#d9c657" points="1534.5,-627 1534.5,-627 1850.5,-627 1850.5,-627 1534.5,-627"/>
<polygon fill="#d9c657" stroke="#d9c657" points="1534.5,-609 1534.5,-609 1850.5,-609 1850.5,-609 1534.5,-609"/>
<polygon fill="none" stroke="#d9c657" stroke-width="2" points="1534,-566 1534,-656 1849,-656 1849,-566 1534,-566"/>
</g>
<!-- 11&#45;&gt;10 -->
<g id="edge15" class="edge">
<title>11&#45;&gt;10</title>
<path fill="none" stroke="grey" stroke-width="2" d="M1691.5,-564.64C1691.5,-547.95 1691.5,-528.69 1691.5,-510.52"/>
<polygon fill="grey" stroke="grey" stroke-width="2" points="1695,-510.27 1691.5,-500.27 1688,-510.27 1695,-510.27"/>
</g>
<!-- 12&#45;&gt;0 -->
<g id="edge1" class="edge">
<title>12&#45;&gt;0</title>
<path fill="none" stroke="grey" stroke-width="2" d="M1572.82,-199.83C1557.71,-193.45 1542.34,-187.34 1527.5,-182 1453.07,-155.22 1368.72,-131.32 1297.13,-112.85"/>
<polygon fill="grey" stroke="grey" stroke-width="2" points="1297.68,-109.37 1287.12,-110.28 1295.94,-116.15 1297.68,-109.37"/>
</g>
<!-- 13&#45;&gt;0 -->
<g id="edge3" class="edge">
<title>13&#45;&gt;0</title>
<path fill="none" stroke="grey" stroke-width="2" d="M1005.9,-199.91C1020.74,-185.15 1037.04,-168.94 1052.86,-153.21"/>
<polygon fill="grey" stroke="grey" stroke-width="2" points="1055.46,-155.55 1060.08,-146.02 1050.53,-150.59 1055.46,-155.55"/>
</g>
</g>
</svg>
